<?xml version="1.0" encoding="utf-8"?>
<!-- Generator: Adobe Illustrator 14.0.0, SVG Export Plug-In . SVG Version: 6.00 Build 43363)  -->
<!DOCTYPE svg PUBLIC "-//W3C//DTD SVG 1.1//EN" "http://www.w3.org/Graphics/SVG/1.1/DTD/svg11.dtd">
<svg version="1.1"
	 id="svg2461" sodipodi:docname="Logo_sw_mit_fakultaet_v2.svg" xmlns:dc="http://purl.org/dc/elements/1.1/" sodipodi:version="0.32" inkscape:version="0.46" inkscape:export-xdpi="163.63637" inkscape:export-ydpi="163.63637" xmlns:sodipodi="http://sodipodi.sourceforge.net/DTD/sodipodi-0.dtd" xmlns:cc="http://creativecommons.org/ns#" xmlns:inkscape="http://www.inkscape.org/namespaces/inkscape" xmlns:rdf="http://www.w3.org/1999/02/22-rdf-syntax-ns#" xmlns:svg="http://www.w3.org/2000/svg" inkscape:export-filename="/home/hagen/uni/fs/Logo_sw_mit_fakultaet.png" inkscape:output_extension="org.inkscape.output.svg.inkscape"
	 xmlns="http://www.w3.org/2000/svg" xmlns:xlink="http://www.w3.org/1999/xlink" x="0px" y="0px" width="409px" height="304px"
	 viewBox="31.547 -10.319 409 304" enable-background="new 31.547 -10.319 409 304" xml:space="preserve">
<sodipodi:namedview  id="base" showgrid="true" inkscape:pageopacity="0.0" gridtolerance="10.0" bordercolor="#666666" borderopacity="1.0" guidetolerance="10.0" pagecolor="#ffffff" objecttolerance="10.0" inkscape:pageshadow="2" inkscape:window-width="1270" inkscape:zoom="2.0724015" inkscape:cy="897.64242" inkscape:window-x="0" inkscape:window-y="0" inkscape:cx="240.96588" inkscape:current-layer="svg2461" inkscape:window-height="960">
	<inkscape:grid  type="xygrid" id="grid2399" visible="true" enabled="true"></inkscape:grid>
</sodipodi:namedview>
<defs>
	
	
		<inkscape:perspective  id="perspective26" inkscape:persp3d-origin="373.957 : 77.829753 : 1" inkscape:vp_z="747.914 : 116.74463 : 1" inkscape:vp_y="0 : 1000 : 0" inkscape:vp_x="0 : 116.74463 : 1" sodipodi:type="inkscape:persp3d">
		</inkscape:perspective>
</defs>
<path id="path2387" sodipodi:nodetypes="cccccccccccccccccccccccccccccccccc" stroke="#000000" stroke-width="2" d="
	M199.274,191.681v-50h-50v100h-50v-100h-50v-50h50c0-55.2,42.3-100,100-100v50c-27.601,0-50,22.399-50,50h50v-50h50v50h50
	c0-55.2,44.8-100,100-100v50l0,0c-27.6,0-50,22.399-50,50h50v50h-50v100h-50v-100h-50v50c0,27.6,22.399,50,50,50v26.019v23.98l0,0
	C244.074,291.68,199.274,246.88,199.274,191.681z"/>
<g enable-background="new    ">
	<path fill="#FFFFFF" d="M55.751,135.809V98.407h25.058v3.967H60.987v12.535h17.329v3.917H60.987v16.982H55.751z"/>
	<path fill="#FFFFFF" d="M79.612,135.809l14.013-37.402h5.186l13.788,37.402h-5.635l-3.839-10.361H88.313l-3.84,10.361H79.612z
		 M89.809,121.505h11.868l-5.909-16.022L89.809,121.505z"/>
	<path fill="#FFFFFF" d="M145.011,133.888c-3.807,1.904-7.879,2.855-12.217,2.855c-6.067,0-10.68-1.668-13.838-5.004
		c-3.175-3.336-4.762-8.196-4.762-14.582c0-6.369,1.612-11.246,4.837-14.632c3.224-3.37,7.887-5.054,13.987-5.054
		c3.407,0,7.388,0.547,11.943,1.643v4.979c-5.17-1.769-9.242-2.654-12.217-2.654c-4.172,0-7.372,1.348-9.599,4.043
		c-2.228,2.679-3.341,6.554-3.341,11.625c0,4.954,1.188,8.77,3.565,11.448c2.377,2.696,5.718,4.043,10.023,4.043
		c3.606,0,7.48-1.087,11.619-3.26V133.888z"/>
	<path fill="#FFFFFF" d="M150.895,135.809V98.407h5.236v15.77h18.176v-15.77h5.211v37.402h-5.211v-17.665h-18.176v17.665H150.895z"
		/>
	<path fill="#FFFFFF" d="M186.65,134.495v-5.257c4.92,2.359,9.773,3.538,14.561,3.538c5.369,0,8.054-2.013,8.054-6.04
		c0-2.089-0.74-3.622-2.219-4.599c-1.147-0.775-2.992-1.583-5.535-2.426l-5.012-1.668c-6.433-2.139-9.649-5.669-9.649-10.589
		c0-6.655,4.504-9.982,13.514-9.982c3.856,0,7.854,0.531,11.993,1.592v4.877c-4.322-1.668-8.427-2.502-12.317-2.502
		c-5.419,0-8.128,1.87-8.128,5.61c0,1.466,0.507,2.646,1.521,3.538c1.047,0.927,2.892,1.828,5.535,2.704l5.136,1.693
		c3.873,1.28,6.599,2.746,8.178,4.397c1.579,1.635,2.369,3.825,2.369,6.571c0,3.319-1.213,5.948-3.64,7.885
		c-2.41,1.938-5.743,2.906-9.998,2.906C196.822,136.744,192.035,135.994,186.65,134.495z"/>
	<path fill="#FFFFFF" d="M251.426,133.888c-3.807,1.904-7.879,2.855-12.217,2.855c-6.067,0-10.68-1.668-13.838-5.004
		c-3.175-3.336-4.762-8.196-4.762-14.582c0-6.369,1.612-11.246,4.837-14.632c3.224-3.37,7.887-5.054,13.987-5.054
		c3.407,0,7.388,0.547,11.943,1.643v4.979c-5.17-1.769-9.242-2.654-12.217-2.654c-4.172,0-7.372,1.348-9.599,4.043
		c-2.228,2.679-3.341,6.554-3.341,11.625c0,4.954,1.188,8.77,3.565,11.448c2.377,2.696,5.718,4.043,10.023,4.043
		c3.606,0,7.48-1.087,11.619-3.26V133.888z"/>
	<path fill="#FFFFFF" d="M257.309,135.809V98.407h5.236v15.77h18.176v-15.77h5.211v37.402h-5.211v-17.665h-18.176v17.665H257.309z"
		/>
	<path fill="#FFFFFF" d="M290.545,135.809l14.013-37.402h5.186l13.788,37.402h-5.635l-3.839-10.361h-14.811l-3.84,10.361H290.545z
		 M300.743,121.505h11.868l-5.909-16.022L300.743,121.505z"/>
	<path fill="#FFFFFF" d="M328.892,135.809V98.407h25.058v3.967h-19.822v12.535h17.329v3.917h-17.329v16.982H328.892z"/>
	<path fill="#FFFFFF" d="M368.287,135.809v-33.435H355.82v-3.967h30.168v3.967h-12.467v33.435H368.287z"/>
</g>
<g enable-background="new    ">
	<path d="M38.383,277.68v-18.088h-6.836v-2.146H48.09v2.146h-6.836v18.088H38.383z"/>
	<path d="M50.989,277.68v-20.234h14.67v2.146H53.86v6.494h10.445v2.119H53.86v7.328h12.4v2.146H50.989z"/>
	<path d="M85.537,276.641c-2.087,1.03-4.32,1.545-6.699,1.545c-3.327,0-5.856-0.902-7.588-2.707
		c-1.741-1.805-2.611-4.435-2.611-7.889c0-3.445,0.884-6.084,2.652-7.916c1.768-1.823,4.325-2.734,7.67-2.734
		c1.868,0,4.051,0.296,6.549,0.889v2.693c-2.835-0.957-5.068-1.436-6.699-1.436c-2.288,0-4.042,0.729-5.264,2.188
		c-1.222,1.449-1.832,3.546-1.832,6.289c0,2.68,0.651,4.744,1.955,6.193c1.303,1.458,3.135,2.188,5.496,2.188
		c1.978,0,4.102-0.588,6.371-1.764V276.641z"/>
	<path d="M88.764,277.68v-20.234h2.871v8.531h9.967v-8.531h2.857v20.234h-2.857v-9.557h-9.967v9.557H88.764z"/>
	<path d="M108.985,277.68v-20.234h2.803l10.432,15.627v-15.627h2.461v20.234h-2.816l-10.418-15.627v15.627H108.985z"/>
	<path d="M129.41,277.68v-20.234h2.871v20.234H129.41z"/>
	<path d="M136.369,276.969v-2.844c2.698,1.276,5.359,1.914,7.984,1.914c2.944,0,4.416-1.089,4.416-3.268
		c0-1.13-0.406-1.96-1.217-2.488c-0.629-0.419-1.641-0.856-3.035-1.312l-2.748-0.902c-3.527-1.157-5.291-3.067-5.291-5.729
		c0-3.601,2.47-5.4,7.41-5.4c2.114,0,4.307,0.287,6.576,0.861v2.639c-2.37-0.902-4.621-1.354-6.754-1.354
		c-2.972,0-4.457,1.012-4.457,3.035c0,0.793,0.278,1.431,0.834,1.914c0.574,0.501,1.586,0.989,3.035,1.463l2.816,0.916
		c2.124,0.692,3.618,1.485,4.484,2.379c0.866,0.884,1.299,2.069,1.299,3.555c0,1.796-0.666,3.218-1.996,4.266
		c-1.322,1.048-3.149,1.572-5.482,1.572C141.948,278.186,139.323,277.781,136.369,276.969z"/>
	<path d="M171.889,276.641c-2.087,1.03-4.32,1.545-6.699,1.545c-3.327,0-5.856-0.902-7.588-2.707
		c-1.741-1.805-2.611-4.435-2.611-7.889c0-3.445,0.884-6.084,2.652-7.916c1.768-1.823,4.325-2.734,7.67-2.734
		c1.868,0,4.051,0.296,6.549,0.889v2.693c-2.835-0.957-5.068-1.436-6.699-1.436c-2.288,0-4.042,0.729-5.264,2.188
		c-1.222,1.449-1.832,3.546-1.832,6.289c0,2.68,0.651,4.744,1.955,6.193c1.303,1.458,3.135,2.188,5.496,2.188
		c1.978,0,4.102-0.588,6.371-1.764V276.641z"/>
	<path d="M175.115,277.68v-20.234h2.871v8.531h9.967v-8.531h2.857v20.234h-2.857v-9.557h-9.967v9.557H175.115z"/>
	<path d="M195.692,277.68v-20.234h14.67v2.146h-11.799v6.494h10.445v2.119h-10.445v7.328h12.4v2.146H195.692z"/>
	<path d="M307.719,277.68v-20.234h13.74v2.146H310.59v6.781h9.502v2.119h-9.502v9.188H307.719z"/>
	<path d="M320.803,277.68l7.684-20.234h2.844l7.561,20.234h-3.09l-2.105-5.605h-8.121l-2.105,5.605H320.803z M326.395,269.942h6.508
		l-3.24-8.668L326.395,269.942z"/>
	<path d="M341.83,277.68v-20.234h2.693v9.953l8.408-9.953h2.885l-8.148,9.652l9.557,10.582h-3.637l-9.064-10.254v10.254H341.83z"/>
	<path d="M360.164,257.446h2.871v12.77c0,1.44,0.118,2.497,0.355,3.172c0.228,0.665,0.67,1.23,1.326,1.695
		c0.911,0.638,2.137,0.957,3.678,0.957c1.813,0,3.084-0.429,3.815-1.285c0.738-0.848,1.107-2.329,1.107-4.443v-12.865h2.516v12.824
		c0,1.805-0.178,3.172-0.533,4.102c-0.355,0.938-1.012,1.75-1.969,2.434c-1.294,0.921-3.021,1.381-5.182,1.381
		c-2.753,0-4.771-0.638-6.057-1.914s-1.928-3.304-1.928-6.084V257.446z"/>
	<path d="M380.371,277.68v-20.234h2.871v18.088h9.926v2.146H380.371z"/>
	<path d="M398.227,277.68v-18.088h-6.836v-2.146h16.543v2.146h-6.836v18.088H398.227z"/>
	<path d="M406.02,277.68l7.684-20.234h2.844l7.561,20.234h-3.09l-2.105-5.605h-8.121l-2.105,5.605H406.02z M411.242,255.75v-2.365
		h2.365v2.365H411.242z M411.612,269.942h6.508l-3.24-8.668L411.612,269.942z M416.643,255.75v-2.365h2.365v2.365H416.643z"/>
	<path d="M429.112,277.68v-18.088h-6.836v-2.146h16.543v2.146h-6.836v18.088H429.112z"/>
</g>
</svg>
